<svg xmlns="http://www.w3.org/2000/svg" width="1402" height="1122" viewBox="0 0 1402 1122" role="img" aria-label="PMSA emblem">
  <path d="M 678 488 L 653 496 L 638 503 L 619 515 L 613 520 L 598 536 L 591 547 L 583 566 L 579 585 L 579 607 L 582 623 L 585 632 L 592 646 L 600 657 L 612 669 L 626 679 L 643 688 L 667 697 L 682 701 L 697 704 L 699 706 L 700 721 L 700 792 L 702 858 L 702 889 L 700 891 L 698 891 L 690 885 L 684 878 L 682 872 L 682 864 L 685 858 L 689 854 L 688 804 L 683 805 L 667 816 L 652 832 L 644 848 L 642 859 L 642 867 L 644 879 L 647 887 L 657 903 L 664 910 L 679 921 L 694 928 L 701 930 L 703 933 L 703 985 L 704 998 L 708 1020 L 712 1034 L 716 1045 L 719 1045 L 723 1034 L 730 1005 L 732 985 L 732 951 L 735 949 L 739 952 L 744 958 L 747 965 L 750 967 L 754 966 L 756 964 L 758 959 L 758 946 L 752 932 L 742 920 L 733 912 L 733 892 L 735 848 L 736 727 L 737 716 L 739 714 L 741 714 L 747 716 L 760 723 L 770 733 L 773 738 L 775 744 L 775 756 L 771 766 L 761 778 L 748 786 L 748 791 L 747 792 L 748 843 L 752 843 L 765 839 L 784 830 L 800 819 L 814 805 L 823 792 L 829 780 L 832 771 L 835 753 L 835 741 L 832 723 L 826 707 L 816 692 L 806 682 L 797 675 L 787 669 L 766 659 L 736 648 L 733 648 L 707 638 L 701 637 L 686 631 L 676 626 L 667 620 L 654 606 L 651 598 L 651 586 L 655 576 L 658 572 L 667 564 L 683 556 L 684 538 L 683 491 L 682 489 Z M 1207 445 L 1205 446 L 1205 466 L 1201 501 L 1192 545 L 1186 566 L 1179 584 L 1179 587 L 1174 597 L 1173 602 L 1166 618 L 1150 648 L 1150 650 L 1140 667 L 1124 691 L 1098 724 L 1061 762 L 1033 785 L 1026 789 L 1022 793 L 993 812 L 949 835 L 942 837 L 935 841 L 922 846 L 884 858 L 847 866 L 810 870 L 764 869 L 746 870 L 745 881 L 745 908 L 758 920 L 764 928 L 768 936 L 770 944 L 770 961 L 766 971 L 759 978 L 754 980 L 744 980 L 743 1001 L 740 1019 L 738 1023 L 738 1027 L 736 1031 L 737 1034 L 762 1033 L 786 1030 L 815 1025 L 844 1018 L 864 1012 L 867 1010 L 885 1005 L 917 992 L 942 980 L 983 956 L 986 953 L 989 952 L 1002 943 L 1032 920 L 1053 902 L 1079 876 L 1106 844 L 1120 825 L 1140 794 L 1152 773 L 1165 747 L 1179 714 L 1188 689 L 1196 662 L 1202 637 L 1206 616 L 1206 610 L 1208 604 L 1213 558 L 1214 533 L 1213 490 L 1209 451 Z M 1108 139 L 1089 147 L 1060 161 L 1051 164 L 1029 175 L 1026 175 L 968 112 L 966 113 L 966 119 L 972 187 L 971 201 L 945 212 L 941 215 L 890 238 L 891 240 L 912 244 L 935 250 L 973 257 L 977 260 L 978 285 L 983 342 L 987 352 L 992 342 L 1016 302 L 1022 294 L 1027 284 L 1031 279 L 1033 274 L 1035 272 L 1039 272 L 1050 275 L 1060 276 L 1115 288 L 1123 287 L 1067 219 L 1067 216 L 1080 195 L 1107 147 L 1108 144 Z M 711 103 L 701 105 L 692 108 L 677 117 L 668 126 L 663 133 L 656 148 L 654 157 L 653 169 L 655 184 L 658 193 L 662 201 L 667 208 L 676 217 L 685 223 L 690 225 L 692 227 L 692 293 L 690 295 L 662 294 L 630 295 L 532 295 L 522 294 L 507 295 L 494 298 L 488 301 L 483 306 L 480 313 L 480 323 L 482 330 L 488 341 L 506 360 L 516 367 L 527 373 L 539 378 L 552 382 L 583 387 L 616 387 L 641 385 L 691 378 L 693 380 L 694 385 L 694 453 L 698 616 L 699 617 L 699 622 L 714 628 L 738 635 L 739 604 L 739 556 L 742 456 L 742 393 L 743 376 L 745 374 L 750 373 L 771 373 L 786 375 L 798 379 L 810 386 L 819 395 L 825 406 L 826 410 L 826 426 L 824 432 L 820 440 L 809 452 L 799 459 L 787 465 L 772 470 L 757 473 L 753 475 L 754 546 L 792 539 L 829 527 L 849 517 L 865 506 L 883 488 L 890 478 L 897 464 L 901 453 L 905 437 L 907 419 L 906 397 L 903 380 L 896 360 L 885 341 L 881 336 L 864 320 L 853 313 L 838 306 L 817 300 L 800 297 L 777 295 L 746 295 L 744 293 L 745 226 L 750 222 L 756 219 L 763 213 L 774 199 L 780 185 L 782 176 L 782 157 L 777 140 L 773 132 L 767 124 L 760 117 L 748 109 L 741 106 L 729 103 Z M 649 28 L 632 29 L 607 32 L 569 40 L 543 48 L 515 59 L 487 73 L 468 84 L 447 98 L 413 124 L 395 140 L 360 175 L 342 196 L 322 222 L 311 238 L 285 281 L 266 320 L 253 353 L 245 377 L 231 433 L 224 478 L 221 517 L 221 562 L 226 612 L 235 658 L 245 694 L 259 732 L 263 739 L 265 746 L 281 778 L 305 818 L 327 848 L 348 873 L 381 906 L 418 937 L 453 961 L 473 973 L 510 992 L 544 1006 L 575 1016 L 594 1021 L 627 1028 L 641 1029 L 656 1032 L 680 1034 L 699 1033 L 695 1019 L 692 1003 L 691 991 L 691 964 L 690 963 L 690 940 L 678 935 L 660 923 L 644 907 L 638 898 L 633 887 L 630 876 L 629 862 L 630 853 L 632 847 L 631 842 L 601 830 L 572 815 L 548 800 L 526 784 L 502 764 L 482 745 L 457 717 L 436 689 L 423 669 L 414 653 L 403 631 L 390 600 L 381 573 L 373 542 L 367 507 L 364 474 L 364 421 L 365 406 L 370 369 L 377 337 L 388 301 L 400 271 L 408 254 L 415 242 L 415 240 L 429 216 L 456 177 L 478 151 L 505 124 L 536 98 L 575 72 L 591 63 L 618 50 L 656 37 L 690 30 L 684 28 Z" fill="#124f2d" fill-rule="evenodd"/>
</svg>